<mxfile host="Electron" agent="Mozilla/5.0 (Macintosh; Intel Mac OS X 10_15_7) AppleWebKit/537.36 (KHTML, like Gecko) draw.io/28.0.4 Chrome/138.0.7204.97 Electron/37.2.1 Safari/537.36" version="28.0.4">
  <diagram name="Page-1" id="SApdiPhW5QvV-BjYRMS2">
    <mxGraphModel dx="4327" dy="651" grid="1" gridSize="10" guides="1" tooltips="1" connect="1" arrows="1" fold="1" page="1" pageScale="1" pageWidth="827" pageHeight="1169" math="0" shadow="0">
      <root>
        <mxCell id="0" />
        <mxCell id="1" parent="0" />
        <mxCell id="pTMZZPk5SkNvSBJrasHx-61" value="" style="rounded=0;whiteSpace=wrap;html=1;dashed=1;strokeColor=light-dark(#4D4D4D,#EDEDED);fillColor=none;dashPattern=1 1;" vertex="1" parent="1">
          <mxGeometry x="-3140" y="120" width="470" height="400" as="geometry" />
        </mxCell>
        <mxCell id="pTMZZPk5SkNvSBJrasHx-3" value="&lt;b&gt;&lt;font style=&quot;font-size: 24px;&quot; face=&quot;Verdana&quot;&gt;High Level Architecture&amp;nbsp;&lt;/font&gt;&lt;/b&gt;" style="text;html=1;align=center;verticalAlign=middle;resizable=0;points=[];autosize=1;strokeColor=none;fillColor=none;" vertex="1" parent="1">
          <mxGeometry x="-3280" y="10" width="350" height="40" as="geometry" />
        </mxCell>
        <mxCell id="pTMZZPk5SkNvSBJrasHx-5" value="" style="rounded=0;whiteSpace=wrap;html=1;dashed=1;strokeColor=light-dark(#4D4D4D,#EDEDED);fillColor=none;dashPattern=1 1;" vertex="1" parent="1">
          <mxGeometry x="-3300" y="120" width="140" height="400" as="geometry" />
        </mxCell>
        <mxCell id="pTMZZPk5SkNvSBJrasHx-8" value="&lt;font style=&quot;font-size: 20px;&quot;&gt;Sources&lt;/font&gt;" style="rounded=0;whiteSpace=wrap;html=1;strokeColor=none;" vertex="1" parent="1">
          <mxGeometry x="-3272.83" y="100" width="90" height="30" as="geometry" />
        </mxCell>
        <mxCell id="pTMZZPk5SkNvSBJrasHx-11" value="&lt;span style=&quot;font-size: 20px;&quot;&gt;Data Warehouse&lt;span style=&quot;white-space: pre;&quot;&gt;&#x9;&lt;/span&gt;&lt;/span&gt;" style="rounded=0;whiteSpace=wrap;html=1;strokeColor=none;" vertex="1" parent="1">
          <mxGeometry x="-2984" y="100" width="180" height="30" as="geometry" />
        </mxCell>
        <mxCell id="pTMZZPk5SkNvSBJrasHx-12" value="" style="rounded=0;whiteSpace=wrap;html=1;dashed=1;strokeColor=light-dark(#4D4D4D,#EDEDED);fillColor=none;dashPattern=1 1;" vertex="1" parent="1">
          <mxGeometry x="-2650" y="120" width="140" height="400" as="geometry" />
        </mxCell>
        <mxCell id="pTMZZPk5SkNvSBJrasHx-13" value="&lt;font style=&quot;font-size: 20px;&quot;&gt;Consume&lt;/font&gt;" style="rounded=0;whiteSpace=wrap;html=1;strokeColor=none;" vertex="1" parent="1">
          <mxGeometry x="-2620" y="100" width="90" height="30" as="geometry" />
        </mxCell>
        <mxCell id="pTMZZPk5SkNvSBJrasHx-14" value="&lt;font&gt;&lt;b style=&quot;&quot;&gt;Bronze Layer&lt;/b&gt;&lt;/font&gt;" style="rounded=0;whiteSpace=wrap;html=1;fillColor=#ffe6cc;strokeColor=#d79b00;" vertex="1" parent="1">
          <mxGeometry x="-3100" y="160" width="80" height="20" as="geometry" />
        </mxCell>
        <mxCell id="pTMZZPk5SkNvSBJrasHx-15" value="" style="rounded=0;whiteSpace=wrap;html=1;fillColor=none;strokeColor=#d79b00;" vertex="1" parent="1">
          <mxGeometry x="-3130" y="190" width="130" height="320" as="geometry" />
        </mxCell>
        <mxCell id="pTMZZPk5SkNvSBJrasHx-17" value="&lt;b&gt;Silver Layer&lt;/b&gt;" style="rounded=0;whiteSpace=wrap;html=1;fillColor=#f5f5f5;strokeColor=#666666;fontColor=#333333;" vertex="1" parent="1">
          <mxGeometry x="-2945.01" y="160" width="80" height="20" as="geometry" />
        </mxCell>
        <mxCell id="pTMZZPk5SkNvSBJrasHx-18" value="" style="rounded=0;whiteSpace=wrap;html=1;fillColor=none;strokeColor=#666666;fontColor=#333333;" vertex="1" parent="1">
          <mxGeometry x="-2970" y="190" width="130" height="320" as="geometry" />
        </mxCell>
        <mxCell id="pTMZZPk5SkNvSBJrasHx-19" value="&lt;b&gt;Gold Layer&lt;/b&gt;" style="rounded=0;whiteSpace=wrap;html=1;fillColor=#fff2cc;strokeColor=#d6b656;" vertex="1" parent="1">
          <mxGeometry x="-2783.5699999999997" y="160" width="80" height="20" as="geometry" />
        </mxCell>
        <mxCell id="pTMZZPk5SkNvSBJrasHx-20" value="" style="rounded=0;whiteSpace=wrap;html=1;fillColor=none;strokeColor=#d6b656;" vertex="1" parent="1">
          <mxGeometry x="-2807.12" y="190" width="127.12" height="320" as="geometry" />
        </mxCell>
        <mxCell id="pTMZZPk5SkNvSBJrasHx-21" value="&lt;b&gt;CRM&lt;/b&gt;" style="image;aspect=fixed;html=1;points=[];align=center;fontSize=12;image=img/lib/azure2/general/Folder_Blank.svg;" vertex="1" parent="1">
          <mxGeometry x="-3251.31" y="210" width="36.96" height="30" as="geometry" />
        </mxCell>
        <mxCell id="pTMZZPk5SkNvSBJrasHx-22" value="" style="image;aspect=fixed;html=1;points=[];align=center;fontSize=12;image=img/lib/azure2/general/File.svg;" vertex="1" parent="1">
          <mxGeometry x="-3221.31" y="220" width="24.35" height="30" as="geometry" />
        </mxCell>
        <mxCell id="pTMZZPk5SkNvSBJrasHx-24" value="&lt;b&gt;ERP&lt;/b&gt;" style="image;aspect=fixed;html=1;points=[];align=center;fontSize=12;image=img/lib/azure2/general/Folder_Blank.svg;" vertex="1" parent="1">
          <mxGeometry x="-3251.31" y="280" width="38.48" height="31.23" as="geometry" />
        </mxCell>
        <mxCell id="pTMZZPk5SkNvSBJrasHx-25" value="" style="image;aspect=fixed;html=1;points=[];align=center;fontSize=12;image=img/lib/azure2/general/File.svg;" vertex="1" parent="1">
          <mxGeometry x="-3221.31" y="291.23" width="24.35" height="30" as="geometry" />
        </mxCell>
        <mxCell id="pTMZZPk5SkNvSBJrasHx-28" value="" style="endArrow=none;html=1;rounded=0;strokeColor=#B3B3B3;" edge="1" parent="1">
          <mxGeometry width="50" height="50" relative="1" as="geometry">
            <mxPoint x="-3271.93" y="340" as="sourcePoint" />
            <mxPoint x="-3190.69" y="340" as="targetPoint" />
          </mxGeometry>
        </mxCell>
        <mxCell id="pTMZZPk5SkNvSBJrasHx-30" value="&lt;font style=&quot;font-size: 10px;&quot;&gt;&lt;b style=&quot;&quot;&gt;&lt;font style=&quot;color: rgb(0, 0, 0);&quot;&gt;Object Type&lt;/font&gt;&lt;/b&gt;&lt;font color=&quot;#b3b3b3&quot;&gt;: &lt;/font&gt;&lt;font style=&quot;color: rgb(51, 51, 51);&quot;&gt;CSV Files&lt;/font&gt;&lt;/font&gt;&lt;div&gt;&lt;font style=&quot;font-size: 10px;&quot;&gt;&lt;b style=&quot;&quot;&gt;&lt;font style=&quot;color: rgb(0, 0, 0);&quot;&gt;Interface&lt;/font&gt;&lt;/b&gt;&lt;font color=&quot;#b3b3b3&quot;&gt;: &lt;/font&gt;&lt;font style=&quot;color: rgb(51, 51, 51);&quot;&gt;Files in Folder&lt;/font&gt;&lt;/font&gt;&lt;/div&gt;" style="text;html=1;align=center;verticalAlign=middle;whiteSpace=wrap;rounded=0;" vertex="1" parent="1">
          <mxGeometry x="-3300" y="350" width="140" height="30" as="geometry" />
        </mxCell>
        <mxCell id="pTMZZPk5SkNvSBJrasHx-33" value="" style="html=1;verticalLabelPosition=bottom;align=center;labelBackgroundColor=#ffffff;verticalAlign=top;strokeWidth=2;strokeColor=#d79b00;shadow=0;dashed=0;shape=mxgraph.ios7.icons.data;fillColor=#ffe6cc;" vertex="1" parent="1">
          <mxGeometry x="-3082.1200000000003" y="250.32" width="34.25" height="38.12" as="geometry" />
        </mxCell>
        <mxCell id="pTMZZPk5SkNvSBJrasHx-36" value="" style="shape=singleArrow;whiteSpace=wrap;html=1;fillColor=#dae8fc;strokeColor=#6c8ebf;" vertex="1" parent="1">
          <mxGeometry x="-3180" y="260" width="80" height="21.23" as="geometry" />
        </mxCell>
        <mxCell id="pTMZZPk5SkNvSBJrasHx-37" value="" style="shape=singleArrow;whiteSpace=wrap;html=1;fillColor=#dae8fc;strokeColor=#6c8ebf;" vertex="1" parent="1">
          <mxGeometry x="-3010" y="258.77" width="50" height="21.23" as="geometry" />
        </mxCell>
        <mxCell id="pTMZZPk5SkNvSBJrasHx-39" value="" style="shape=singleArrow;whiteSpace=wrap;html=1;fillColor=#dae8fc;strokeColor=#6c8ebf;" vertex="1" parent="1">
          <mxGeometry x="-2847.12" y="258.77" width="50" height="21.23" as="geometry" />
        </mxCell>
        <mxCell id="pTMZZPk5SkNvSBJrasHx-41" value="" style="shape=singleArrow;whiteSpace=wrap;html=1;fillColor=#dae8fc;strokeColor=#6c8ebf;" vertex="1" parent="1">
          <mxGeometry x="-2700" y="260.32" width="80" height="21.23" as="geometry" />
        </mxCell>
        <mxCell id="pTMZZPk5SkNvSBJrasHx-42" value="&lt;font style=&quot;font-size: 11px;&quot;&gt;Raw Data&lt;/font&gt;" style="text;html=1;align=center;verticalAlign=middle;whiteSpace=wrap;rounded=0;" vertex="1" parent="1">
          <mxGeometry x="-3095" y="290" width="60" height="20" as="geometry" />
        </mxCell>
        <mxCell id="pTMZZPk5SkNvSBJrasHx-44" value="" style="html=1;verticalLabelPosition=bottom;align=center;labelBackgroundColor=#ffffff;verticalAlign=top;strokeWidth=2;strokeColor=#666666;shadow=0;dashed=0;shape=mxgraph.ios7.icons.data;fillColor=#f5f5f5;fontColor=#333333;" vertex="1" parent="1">
          <mxGeometry x="-2922.13" y="253.12" width="34.25" height="35" as="geometry" />
        </mxCell>
        <mxCell id="pTMZZPk5SkNvSBJrasHx-45" value="&lt;span style=&quot;font-size: 11px;&quot;&gt;Cleaned, Standardized Data&lt;/span&gt;" style="text;html=1;align=center;verticalAlign=middle;whiteSpace=wrap;rounded=0;" vertex="1" parent="1">
          <mxGeometry x="-2970" y="296.23" width="130" height="20" as="geometry" />
        </mxCell>
        <mxCell id="pTMZZPk5SkNvSBJrasHx-49" value="" style="html=1;verticalLabelPosition=bottom;align=center;labelBackgroundColor=#ffffff;verticalAlign=top;strokeWidth=2;strokeColor=#d79b00;shadow=0;dashed=0;shape=mxgraph.ios7.icons.data;fillColor=#ffe6cc;" vertex="1" parent="1">
          <mxGeometry x="-2760.69" y="253.44" width="34.25" height="35" as="geometry" />
        </mxCell>
        <mxCell id="pTMZZPk5SkNvSBJrasHx-50" value="&lt;span style=&quot;font-size: 11px;&quot;&gt;Business -Ready Data&lt;/span&gt;" style="text;html=1;align=center;verticalAlign=middle;whiteSpace=wrap;rounded=0;" vertex="1" parent="1">
          <mxGeometry x="-2800" y="296.23" width="120" height="20" as="geometry" />
        </mxCell>
        <mxCell id="pTMZZPk5SkNvSBJrasHx-53" value="" style="endArrow=none;html=1;rounded=0;strokeColor=#d6b656;fillColor=#fff2cc;" edge="1" parent="1">
          <mxGeometry width="50" height="50" relative="1" as="geometry">
            <mxPoint x="-2784.18" y="329.70000000000005" as="sourcePoint" />
            <mxPoint x="-2702.94" y="329.70000000000005" as="targetPoint" />
          </mxGeometry>
        </mxCell>
        <mxCell id="pTMZZPk5SkNvSBJrasHx-54" value="&lt;div style=&quot;text-align: left;&quot;&gt;&lt;font&gt;&lt;b&gt;&lt;font&gt;Object Type&lt;/font&gt;&lt;/b&gt;&lt;font&gt;: Tables&lt;/font&gt;&lt;/font&gt;&lt;/div&gt;&lt;div style=&quot;text-align: left;&quot;&gt;&lt;font&gt;&lt;font&gt;&lt;br&gt;&lt;/font&gt;&lt;/font&gt;&lt;/div&gt;&lt;div style=&quot;text-align: left;&quot;&gt;&lt;font&gt;&lt;b&gt;Load&lt;/b&gt;:&lt;/font&gt;&lt;/div&gt;&lt;div&gt;&lt;ul&gt;&lt;li style=&quot;text-align: left;&quot;&gt;&lt;font&gt;Batch Processing&lt;/font&gt;&lt;/li&gt;&lt;li style=&quot;text-align: left;&quot;&gt;Full Load&lt;/li&gt;&lt;li style=&quot;text-align: left;&quot;&gt;&lt;font&gt;Truncate &amp;amp; Insert&lt;/font&gt;&lt;/li&gt;&lt;/ul&gt;&lt;div style=&quot;text-align: left;&quot;&gt;No &lt;b&gt;Transformations&lt;/b&gt;&lt;/div&gt;&lt;/div&gt;&lt;div style=&quot;text-align: left;&quot;&gt;&lt;b&gt;&lt;br&gt;&lt;/b&gt;&lt;/div&gt;&lt;div style=&quot;text-align: left;&quot;&gt;&lt;b&gt;Data Model: &lt;/b&gt;None (as-is)&lt;/div&gt;&lt;div&gt;&lt;font&gt;&lt;b&gt;&lt;br&gt;&lt;/b&gt;&lt;/font&gt;&lt;/div&gt;" style="text;html=1;align=center;verticalAlign=middle;whiteSpace=wrap;rounded=0;fontSize=7;labelPosition=center;verticalLabelPosition=middle;" vertex="1" parent="1">
          <mxGeometry x="-3115" y="330" width="115" height="170" as="geometry" />
        </mxCell>
        <mxCell id="pTMZZPk5SkNvSBJrasHx-56" value="&lt;div&gt;&lt;font&gt;&lt;b&gt;&lt;font&gt;Object Type&lt;/font&gt;&lt;/b&gt;&lt;font&gt;: Tables&lt;/font&gt;&lt;/font&gt;&lt;/div&gt;&lt;div&gt;&lt;font&gt;&lt;font&gt;&lt;br&gt;&lt;/font&gt;&lt;/font&gt;&lt;/div&gt;&lt;div&gt;&lt;font&gt;&lt;b&gt;Load&lt;/b&gt;:&lt;/font&gt;&lt;/div&gt;&lt;div&gt;&lt;ul&gt;&lt;li&gt;&lt;font&gt;Batch Processing&lt;/font&gt;&lt;/li&gt;&lt;li&gt;&lt;font&gt;Full Load&lt;/font&gt;&lt;/li&gt;&lt;li&gt;&lt;font&gt;Truncate &amp;amp; Insert&lt;/font&gt;&lt;/li&gt;&lt;/ul&gt;&lt;div&gt;&amp;nbsp;&lt;b&gt;Transformations:&lt;/b&gt;&lt;/div&gt;&lt;/div&gt;&lt;div&gt;&lt;ul&gt;&lt;li&gt;Data Cleansing&lt;/li&gt;&lt;li&gt;Data Standardization&lt;/li&gt;&lt;li&gt;Derived Columns&lt;/li&gt;&lt;li&gt;Data Enrichment&lt;/li&gt;&lt;/ul&gt;&lt;/div&gt;&lt;div&gt;&lt;b&gt;Data Model: &lt;/b&gt;None (as-is)&lt;/div&gt;&lt;div&gt;&lt;font&gt;&lt;b&gt;&lt;br&gt;&lt;/b&gt;&lt;/font&gt;&lt;/div&gt;" style="text;html=1;align=left;verticalAlign=middle;whiteSpace=wrap;rounded=0;fontSize=7;" vertex="1" parent="1">
          <mxGeometry x="-2960" y="360" width="120" height="150" as="geometry" />
        </mxCell>
        <mxCell id="pTMZZPk5SkNvSBJrasHx-58" value="" style="endArrow=none;html=1;rounded=0;strokeColor=#d79b00;fillColor=#ffe6cc;" edge="1" parent="1">
          <mxGeometry width="50" height="50" relative="1" as="geometry">
            <mxPoint x="-3101.25" y="329.71000000000004" as="sourcePoint" />
            <mxPoint x="-3020.01" y="329.71000000000004" as="targetPoint" />
          </mxGeometry>
        </mxCell>
        <mxCell id="pTMZZPk5SkNvSBJrasHx-59" value="" style="endArrow=none;html=1;rounded=0;strokeColor=#B3B3B3;" edge="1" parent="1">
          <mxGeometry width="50" height="50" relative="1" as="geometry">
            <mxPoint x="-2940.62" y="330.00000000000006" as="sourcePoint" />
            <mxPoint x="-2859.38" y="330.00000000000006" as="targetPoint" />
          </mxGeometry>
        </mxCell>
        <mxCell id="pTMZZPk5SkNvSBJrasHx-60" value="&lt;div&gt;&lt;font&gt;&lt;b&gt;&lt;font&gt;Object Type&lt;/font&gt;&lt;/b&gt;&lt;font&gt;: Views&lt;/font&gt;&lt;/font&gt;&lt;/div&gt;&lt;div&gt;&lt;font&gt;&lt;font&gt;&lt;br&gt;&lt;/font&gt;&lt;/font&gt;&lt;/div&gt;&lt;div&gt;&lt;font&gt;No&amp;nbsp;&lt;b&gt;Load&lt;/b&gt;:&lt;/font&gt;&lt;/div&gt;&lt;div&gt;&lt;font&gt;&lt;br&gt;&lt;/font&gt;&lt;/div&gt;&lt;div&gt;&lt;div&gt;&amp;nbsp;&lt;b&gt;Transformations:&lt;/b&gt;&lt;/div&gt;&lt;/div&gt;&lt;div&gt;&lt;ul&gt;&lt;li&gt;Data Integrations&lt;/li&gt;&lt;li&gt;Aggregations&lt;/li&gt;&lt;li&gt;Business Logics&lt;/li&gt;&lt;/ul&gt;&lt;/div&gt;&lt;div&gt;&lt;b&gt;Data Model:&amp;nbsp;&lt;/b&gt;&lt;/div&gt;&lt;div&gt;&lt;ul&gt;&lt;li&gt;Star Schema&lt;/li&gt;&lt;li&gt;Flat Table&lt;/li&gt;&lt;li&gt;Aggregated Table&lt;/li&gt;&lt;/ul&gt;&lt;/div&gt;&lt;div&gt;&lt;font&gt;&lt;b&gt;&lt;br&gt;&lt;/b&gt;&lt;/font&gt;&lt;/div&gt;" style="text;html=1;align=left;verticalAlign=middle;whiteSpace=wrap;rounded=0;fontSize=7;" vertex="1" parent="1">
          <mxGeometry x="-2797.12" y="360" width="117.12" height="150" as="geometry" />
        </mxCell>
        <mxCell id="pTMZZPk5SkNvSBJrasHx-62" value="&lt;font size=&quot;1&quot;&gt;BI &amp;amp; Reporting&lt;/font&gt;" style="image;aspect=fixed;html=1;points=[];align=center;fontSize=12;image=img/lib/azure2/power_platform/PowerBI.svg;" vertex="1" parent="1">
          <mxGeometry x="-2598.17" y="242.78" width="36.34" height="48.45" as="geometry" />
        </mxCell>
        <mxCell id="pTMZZPk5SkNvSBJrasHx-69" value="&lt;font size=&quot;1&quot;&gt;Ad-Hoc&amp;nbsp;&lt;/font&gt;&lt;div&gt;&lt;font size=&quot;1&quot;&gt;SQL Queries&lt;/font&gt;&lt;/div&gt;" style="sketch=0;html=1;aspect=fixed;strokeColor=none;shadow=0;fillColor=#3B8DF1;verticalAlign=top;labelPosition=center;verticalLabelPosition=bottom;shape=mxgraph.gcp2.big_query" vertex="1" parent="1">
          <mxGeometry x="-2599.8" y="330" width="39.6" height="40" as="geometry" />
        </mxCell>
        <mxCell id="pTMZZPk5SkNvSBJrasHx-73" value="&lt;div&gt;&lt;br&gt;&lt;/div&gt;&lt;div&gt;&lt;br&gt;&lt;/div&gt;&lt;div&gt;&lt;br&gt;&lt;/div&gt;&lt;div&gt;&lt;br&gt;&lt;/div&gt;&lt;div&gt;&lt;font size=&quot;1&quot;&gt;Machine Learning&lt;/font&gt;&lt;/div&gt;" style="points=[];aspect=fixed;html=1;align=center;shadow=0;dashed=0;fillColor=#FF6A00;strokeColor=none;shape=mxgraph.alibaba_cloud.machine_learning;" vertex="1" parent="1">
          <mxGeometry x="-2594.88" y="420" width="39.76" height="40" as="geometry" />
        </mxCell>
      </root>
    </mxGraphModel>
  </diagram>
</mxfile>
